<svg version="1.1" viewBox="0 0 24 24" xmlns="http://www.w3.org/2000/svg">
 <path d="m8.9211 12.812v-1.625h9.5789v1.625h-9.5789m0 4.875v-1.625h9.5789v1.625h-9.5789m0-9.75v-1.625h9.5789v1.625h-9.5789m-2.7368 0.8125v-2.4375h-0.68421v-0.8125h1.3684v3.25h-0.68421m-0.68421 7.3125v-0.8125h2.0526v3.25h-2.0526v-0.8125h1.3684v-0.40625h-0.68421v-0.8125h0.68421v-0.40625h-1.3684m1.5395-5.6875a0.51316 0.60938 0 0 1 0.51316 0.60938c0 0.1625-0.054737 0.31688-0.14368 0.4225l-1.1426 1.4056h1.2863v0.8125h-2.0526v-0.7475l1.3684-1.69h-1.3684v-0.8125z"/>
</svg>
